<?xml version="1.0" encoding="UTF-8"?>
<svg xmlns="http://www.w3.org/2000/svg" width="131.5" height="28.430137634277344" viewBox="0 -21.560068130493164 131.5 28.430137634277344">
  
  <g transform="translate(0, -17.19584035873413)"><g transform="translate(0, -4.600000000000001)"><svg viewBox="0 0 123 121" width="29" height="29"><path d="M60.2915 120.583H120.583V91.3778H29.2052V60.2915C29.2052 43.1218 43.1218 29.2052 60.2915 29.2052H111.962C101.412 11.706 82.2179 0 60.2915 0H0.00599666V59.1712H0.0119842C0.00599337 59.5426 0 59.9141 0 60.2915C0 93.5884 26.9946 120.583 60.2915 120.583Z" fill="#FF5A22"/><path d="M64.6361 76.0397C73.3403 73.6397 78.4509 64.638 76.0509 55.9338C73.651 47.2296 64.6493 42.119 55.9451 44.519C47.2408 46.9189 42.1303 55.9207 44.5302 64.6249C46.9302 73.3291 55.9319 78.4397 64.6361 76.0397Z" fill="#FF5A22"/><path d="M106.841 76.4331C115.755 74.993 121.813 66.5995 120.373 57.6858C118.933 48.7721 110.54 42.7137 101.626 44.1538C92.7123 45.594 86.6538 53.9874 88.094 62.9011C89.5341 71.8148 97.9276 77.8733 106.841 76.4331Z" fill="#FF5A22"/></svg></g></g>
  <g transform="translate(39, 0)"><path d="M7.87-12L7.87-9.07L5.54-9.07L5.54 0L2.62 0L2.62-9.07L0.84-9.07L0.84-12L2.62-12L2.62-15.77L5.54-15.77L5.54-12L7.87-12Z M14.81 0.31L14.81 0.31Q13.16 0.31 11.79-0.54Q10.43-1.39 9.62-2.83Q8.81-4.26 8.81-6L8.81-6Q8.81-7.32 9.28-8.47Q9.75-9.61 10.57-10.48Q11.39-11.35 12.48-11.84Q13.58-12.34 14.81-12.34L14.81-12.34Q16.47-12.34 17.83-11.48Q19.19-10.63 20.00-9.19Q20.81-7.75 20.81-6L20.81-6Q20.81-4.69 20.34-3.55Q19.88-2.41 19.05-1.54Q18.23-0.67 17.15-0.18Q16.06 0.31 14.81 0.31ZM14.81-2.62L14.81-2.62Q15.69-2.62 16.38-3.08Q17.08-3.55 17.48-4.32Q17.88-5.09 17.88-6L17.88-6Q17.88-6.94 17.47-7.71Q17.06-8.48 16.35-8.95Q15.65-9.41 14.81-9.41L14.81-9.41Q13.95-9.41 13.25-8.94Q12.56-8.47 12.15-7.69Q11.74-6.91 11.74-6L11.74-6Q11.74-5.05 12.16-4.28Q12.58-3.52 13.28-3.07Q13.98-2.62 14.81-2.62Z M29.08-7.09L33.19 0L29.82 0L27.08-4.72L25.40-2.71L25.40 0L22.47 0L22.47-18L25.40-18L25.40-7.26L29.37-12L33.20-12L29.08-7.09Z M40.09 0.31L40.09 0.31Q38.44 0.31 37.07-0.54Q35.71-1.39 34.90-2.83Q34.09-4.27 34.09-6.01L34.09-6.01Q34.09-7.32 34.56-8.47Q35.03-9.61 35.85-10.48Q36.67-11.35 37.76-11.84Q38.86-12.34 40.09-12.34L40.09-12.34Q41.50-12.34 42.67-11.74Q43.84-11.15 44.65-10.12Q45.47-9.08 45.84-7.76Q46.21-6.44 46.01-5.00L46.01-5.00L37.24-5.00Q37.40-4.33 37.79-3.80Q38.17-3.26 38.76-2.95Q39.35-2.63 40.09-2.62L40.09-2.62Q40.86-2.60 41.49-2.98Q42.12-3.36 42.54-4.01L42.54-4.01L45.53-3.31Q44.80-1.72 43.34-0.70Q41.89 0.31 40.09 0.31ZM37.14-7.20L37.14-7.20L43.04-7.20Q42.91-7.92 42.49-8.50Q42.06-9.08 41.44-9.43Q40.81-9.78 40.09-9.78L40.09-9.78Q39.37-9.78 38.76-9.44Q38.15-9.10 37.72-8.51Q37.30-7.93 37.14-7.20Z M50.67 0L47.74 0L47.74-12L50.67-12L50.67-10.93Q51.28-11.58 52.13-11.96Q52.98-12.34 53.97-12.34L53.97-12.34Q55.22-12.34 56.27-11.75Q57.32-11.16 57.94-10.18L57.94-10.18Q58.58-11.16 59.62-11.75Q60.66-12.34 61.91-12.34L61.91-12.34Q63.23-12.34 64.31-11.69Q65.38-11.05 66.02-9.98Q66.66-8.90 66.66-7.58L66.66-7.58L66.66 0L63.74 0L63.74-6.80Q63.74-7.50 63.39-8.08Q63.05-8.66 62.48-9.02Q61.91-9.37 61.20-9.37L61.20-9.37Q60.50-9.37 59.93-9.03Q59.36-8.69 59.01-8.11Q58.66-7.54 58.66-6.80L58.66-6.80L58.66 0L55.73 0L55.73-6.80Q55.73-7.54 55.40-8.11Q55.06-8.69 54.48-9.03Q53.91-9.37 53.20-9.37L53.20-9.37Q52.50-9.37 51.93-9.02Q51.35-8.66 51.01-8.08Q50.67-7.50 50.67-6.80L50.67-6.80L50.67 0Z M73.84 0.31L73.84 0.31Q72.19 0.31 70.83-0.54Q69.46-1.39 68.65-2.83Q67.84-4.26 67.84-6L67.84-6Q67.84-7.32 68.31-8.47Q68.78-9.61 69.60-10.48Q70.42-11.35 71.52-11.84Q72.61-12.34 73.84-12.34L73.84-12.34Q75.50-12.34 76.86-11.48Q78.22-10.63 79.03-9.19Q79.84-7.75 79.84-6L79.84-6Q79.84-4.69 79.38-3.55Q78.91-2.41 78.09-1.54Q77.26-0.67 76.18-0.18Q75.09 0.31 73.84 0.31ZM73.84-2.62L73.84-2.62Q74.72-2.62 75.42-3.08Q76.11-3.55 76.51-4.32Q76.92-5.09 76.92-6L76.92-6Q76.92-6.94 76.50-7.71Q76.09-8.48 75.39-8.95Q74.68-9.41 73.84-9.41L73.84-9.41Q72.98-9.41 72.28-8.94Q71.59-8.47 71.18-7.69Q70.77-6.91 70.77-6L70.77-6Q70.77-5.05 71.19-4.28Q71.61-3.52 72.31-3.07Q73.02-2.62 73.84-2.62Z M92.50-7.58L92.50-7.58L92.50 0L89.57 0L89.57-6.82Q89.57-7.52 89.22-8.11Q88.87-8.69 88.29-9.03Q87.71-9.37 87-9.37L87-9.37Q86.29-9.37 85.71-9.03Q85.13-8.69 84.79-8.11Q84.44-7.52 84.44-6.82L84.44-6.82L84.44 0L81.52 0L81.50-12L84.43-12L84.44-10.93Q85.06-11.58 85.91-11.96Q86.76-12.34 87.74-12.34L87.74-12.34Q89.05-12.34 90.13-11.69Q91.21-11.05 91.85-9.98Q92.50-8.90 92.50-7.58Z" fill="#212121"/></g>
</svg>